<svg version="1.0" xmlns="http://www.w3.org/2000/svg" width="726.000000pt" height="201.000000pt" viewBox="0 0 726.000000 201.000000" preserveAspectRatio="xMidYMid meet">

    <g transform="translate(0.000000,201.000000) scale(0.100000,-0.100000)" fill="#000000" stroke="none">
        <path d="M0 1005 l0 -1005 3630 0 3630 0 0 1005 0 1005 -3630 0 -3630 0 0 -1005z m588 700 l52 -16 0 -89 c0 -50 -4 -90 -9 -90 -5 0 -28 9 -52 20 -24 11 -61 20 -81 20 -31 0 -38 -4 -38 -20 0 -14 17 -28 59 -49 116 -59 151 -105 151 -198 0 -141 -109 -218 -271 -192 -34 5 -77 16 -95 24 l-34 14 0 99 0 99 66 -34 c70 -35 118 -42 127 -19 7 18 -14 36 -91 76 -72 38 -97 68 -112 133 -21 97 21 182 110 221 46 20 153 20 218 1z m1636 5 c25 -9 26 -12 26 -101 0 -83 -2 -90 -17 -84 -53 22 -100 27 -129 14 -85 -41 -85 -227 0 -268 28 -13 81 -8 139 14 15 7 17 -1 17 -84 0 -91 0 -92 -27 -102 -16 -6 -65 -11 -110 -11 -168 1 -259 78 -284 244 -29 184 39 331 173 373 51 16 176 19 212 5z m576 -4 l45 -13 3 -95 3 -96 -47 24 c-49 25 -118 32 -129 14 -11 -17 13 -38 87 -77 108 -57 142 -117 120 -219 -14 -70 -41 -107 -98 -135 -57 -27 -159 -29 -239 -4 l-55 18 0 99 c0 55 3 98 8 96 109 -56 177 -69 177 -33 0 14 -17 28 -63 51 -109 54 -142 100 -142 194 0 54 24 112 58 143 49 45 180 61 272 33z m1016 -14 c94 -48 144 -148 144 -287 0 -200 -105 -317 -285 -317 -131 0 -236 72 -270 185 -19 65 -19 199 0 263 19 65 76 131 139 161 45 21 62 24 141 20 67 -2 100 -9 131 -25z m-2876 -72 c18 -92 21 -90 41 23 l11 67 123 0 124 0 -90 -186 -89 -186 0 -119 0 -119 -105 0 -105 0 0 124 0 123 -61 129 c-34 71 -71 149 -82 174 -12 25 -23 49 -25 53 -2 4 51 6 119 5 l123 -3 16 -85z m589 -23 c24 -61 48 -116 52 -121 5 -6 9 43 9 112 l0 122 100 0 100 0 0 -305 0 -305 -110 0 c-60 0 -110 4 -110 9 0 5 -23 55 -50 112 l-50 104 4 -112 4 -113 -104 0 -104 0 0 305 0 305 108 0 107 0 44 -113z m1736 91 c70 -38 105 -102 105 -193 0 -75 -22 -128 -69 -168 -28 -23 -104 -47 -151 -47 -18 0 -20 -7 -20 -90 l0 -90 -105 0 -105 0 0 306 0 306 158 -4 c120 -3 164 -8 187 -20z m1040 11 c99 -27 150 -105 143 -219 -3 -54 -9 -74 -29 -101 l-26 -34 43 -122 44 -123 -109 0 -108 0 -24 103 -24 102 -3 -102 -3 -103 -104 0 -105 0 0 305 0 305 133 0 c72 0 150 -5 172 -11z m615 -74 l0 -85 -55 0 -55 0 0 -220 0 -220 -105 0 -105 0 -2 218 -3 217 -57 3 -58 3 0 84 0 85 220 0 220 0 0 -85z m1525 -95 c20 -27 41 -50 46 -50 5 0 33 15 62 34 l54 35 13 -54 c18 -76 20 -78 66 -67 101 25 96 26 90 -5 -3 -15 -8 -47 -11 -69 l-6 -42 70 -7 c39 -4 71 -9 71 -11 0 -2 -13 -26 -30 -54 -16 -28 -30 -54 -30 -58 0 -4 25 -20 55 -35 30 -15 55 -30 55 -35 0 -4 -23 -25 -50 -46 -57 -43 -58 -35 13 -113 l29 -31 -62 -18 c-34 -9 -64 -22 -66 -28 -3 -7 5 -38 16 -70 l20 -59 -69 6 c-79 7 -81 5 -81 -74 0 -27 -4 -49 -9 -49 -5 0 -30 9 -56 20 -26 11 -52 20 -59 20 -7 0 -23 -23 -36 -51 -13 -28 -28 -52 -32 -55 -4 -3 -30 15 -56 40 l-49 46 -34 -36 c-60 -63 -66 -63 -97 5 l-27 60 -67 -29 -68 -29 0 69 0 70 -70 -6 c-81 -8 -82 -6 -50 75 l20 51 -70 21 -70 21 46 51 46 51 -44 38 c-23 20 -46 38 -50 38 -21 1 -2 19 47 45 30 17 55 34 55 39 0 5 -13 31 -30 58 -16 26 -30 50 -30 52 0 2 32 7 71 11 l70 7 -6 42 c-3 22 -8 54 -11 69 -6 31 -10 30 89 6 20 -6 41 -8 46 -5 4 3 13 30 20 61 7 30 17 55 22 55 5 0 33 -16 61 -34 l51 -35 39 55 c22 29 41 54 43 54 2 0 20 -22 40 -50z m-5252 -668 c27 -11 27 -12 27 -107 l0 -95 -22 14 c-13 8 -47 22 -76 32 -49 15 -55 15 -69 1 -22 -22 -6 -40 66 -77 107 -56 135 -93 135 -184 0 -73 -19 -113 -77 -160 -38 -30 -41 -31 -145 -31 -78 0 -117 5 -144 17 l-38 17 0 99 0 99 56 -28 c69 -35 123 -47 134 -29 13 22 1 37 -48 60 -113 53 -152 103 -152 198 0 90 32 142 110 177 40 18 196 16 243 -3z m430 0 c27 -11 27 -12 27 -106 l0 -95 -32 19 c-18 10 -53 24 -77 30 -37 10 -46 9 -60 -4 -14 -15 -14 -17 1 -32 9 -9 47 -33 85 -53 76 -42 109 -81 118 -145 14 -88 -44 -191 -122 -217 -47 -15 -197 -6 -245 15 l-38 16 0 99 0 100 59 -31 c72 -37 136 -43 136 -13 0 15 -17 29 -64 52 -111 56 -141 97 -141 193 0 88 33 140 110 175 40 18 196 16 243 -3z m478 4 c63 -22 107 -64 141 -134 31 -62 33 -74 33 -167 0 -94 -2 -105 -33 -168 -28 -56 -43 -74 -89 -105 -56 -37 -57 -37 -162 -37 -120 0 -146 9 -211 76 -53 55 -75 122 -75 234 0 150 45 238 147 289 43 22 65 26 132 26 45 -1 97 -7 117 -14z m586 8 c19 -5 21 -14 25 -97 2 -51 3 -93 3 -95 -1 -1 -21 5 -45 13 -64 22 -97 19 -129 -13 -35 -34 -46 -105 -28 -177 10 -43 17 -53 51 -69 36 -18 41 -18 97 -2 32 9 60 16 61 16 2 0 2 -41 0 -90 -3 -86 -5 -92 -28 -101 -41 -15 -175 -11 -229 7 -64 22 -117 78 -145 150 -19 51 -21 74 -18 169 3 99 6 115 33 164 51 93 120 129 250 130 44 0 90 -2 102 -5z m2017 -6 c64 -19 141 -101 161 -173 26 -88 17 -234 -17 -300 -53 -102 -127 -144 -253 -145 -176 0 -273 98 -283 288 -7 126 17 202 82 267 28 28 67 56 86 62 48 15 174 16 224 1z m-4017 -53 c7 -27 41 -158 74 -290 34 -132 64 -245 66 -252 4 -10 -21 -13 -110 -13 l-115 0 -8 48 -9 47 -52 3 -51 3 -7 -51 -7 -50 -110 0 c-99 0 -109 2 -104 18 3 9 37 143 76 297 40 154 74 284 77 288 2 4 64 6 136 5 l131 -3 13 -50z m2283 -250 l0 -305 -105 0 -105 0 0 305 0 305 105 0 105 0 0 -305z m460 300 c0 -3 34 -137 75 -298 41 -161 75 -296 75 -300 0 -4 -51 -7 -114 -7 l-113 0 -7 50 -7 50 -50 0 c-53 0 -53 0 -64 -63 l-6 -37 -104 0 c-92 0 -105 2 -105 17 0 13 124 500 146 576 5 15 20 17 140 17 74 0 134 -2 134 -5z m600 -80 l0 -84 -57 -3 -58 -3 -3 -217 -2 -218 -100 0 -100 0 -2 218 -3 217 -62 3 -63 3 0 84 0 85 225 0 225 0 0 -85z m240 -220 l0 -305 -105 0 -105 0 0 305 0 305 105 0 105 0 0 -305z m921 180 l48 -120 1 123 0 122 105 0 105 0 0 -305 0 -305 -109 0 -108 0 -31 68 c-17 37 -40 87 -51 112 l-20 45 0 -112 -1 -113 -105 0 -105 0 0 305 0 306 111 -3 111 -3 49 -120z"/>
        <path d="M3643 1538 c-31 -15 -47 -62 -47 -138 1 -107 44 -158 108 -129 35 16 49 66 44 156 -3 67 -6 78 -31 99 -31 26 -41 28 -74 12z"/>
        <path d="M3130 1494 c0 -37 3 -45 16 -42 41 8 44 88 4 88 -17 0 -20 -7 -20 -46z"/>
        <path d="M4210 1495 c0 -49 20 -62 40 -25 15 28 2 70 -21 70 -16 0 -19 -8 -19 -45z"/>
        <path d="M1957 699 c-46 -27 -63 -162 -29 -229 35 -70 110 -60 131 17 38 134 -23 258 -102 212z"/>
        <path d="M4559 697 c-29 -22 -39 -55 -39 -134 0 -83 11 -112 51 -134 30 -16 74 6 91 44 17 42 16 143 -1 185 -21 49 -66 67 -102 39z"/>
        <path d="M527 639 c-3 -13 -9 -48 -13 -76 -7 -53 -6 -53 20 -53 l27 0 -7 58 c-4 31 -10 66 -14 76 -6 18 -7 18 -13 -5z"/>
        <path d="M3276 613 c-4 -26 -9 -60 -12 -75 -5 -25 -3 -28 22 -28 l27 0 -7 68 c-9 84 -21 99 -30 35z"/>
    </g>
</svg>